<svg id="logotype-white" xmlns="http://www.w3.org/2000/svg" width="240" height="45" viewBox="0 0 240 45">
  <path id="logotype-white-2" data-name="logotype-white" d="M209.513,97v20.516c1.957-4.335,5.075-6.716,9.538-6.716,7.093,0,11.5,6.106,11.5,15.326,0,9.342-5.5,15.875-13.7,15.875-3.546,0-6.053-1.282-7.582-3.3l-9.661,3.3h-.122V103.045a1.658,1.658,0,0,0-.55-1.526L196,98.71v-.122Zm4.586,18.684a5.544,5.544,0,0,0-4.586,2.626v19.722a4.882,4.882,0,0,0,3.546,1.343c3.791,0,6.909-2.626,6.909-12.944C219.968,118.615,217.584,115.684,214.1,115.684Zm37.153-3.725c-3.057,0-4.953,2.564-4.953,14.41,0,11.784,1.9,14.532,4.953,14.532s4.953-2.626,4.953-14.471C256.2,114.646,254.309,111.959,251.252,111.959Zm0,30.041c-9.661,0-16.081-5.251-16.081-15.631,0-10.258,6.42-15.57,16.081-15.57s16.142,5.251,16.142,15.631C267.394,136.688,260.912,142,251.252,142Zm47.058-18.867c0,.611-.061,2.015-.061,2.2l-.367,8.67c-.122,2.381.428,3.541,1.651,3.541a1.786,1.786,0,0,0,1.712-1.1h.122a5.332,5.332,0,0,1-.489,2.2A6.273,6.273,0,0,1,294.886,142c-3.485,0-6.481-2.076-6.665-5.923A8.593,8.593,0,0,1,279.906,142c-4.464,0-8.316-2.992-8.316-8.609,0-6.045,5.258-9.22,10.272-9.22a11.117,11.117,0,0,1,6.481,1.649l.122-6.533v-.305c0-4.213-1.284-7.022-4.464-7.022-1.223,0-1.284.061-1.651.733l-4.953,9.159h-.122l-3.852-8.731a37.67,37.67,0,0,1,12.351-2.32c4.1,0,7.276.733,9.477,2.809C297.209,115.44,298.31,118.431,298.31,123.133Zm-12.229,2.931c-3.179,0-4.953,2.748-4.953,6.289,0,3.358,1.529,5.19,3.607,5.19a4.439,4.439,0,0,0,3.485-2.137v-.061l.122-8.915A7.027,7.027,0,0,0,286.081,126.064Zm38.192-14.776h-7.521V101.03h-.122l-8.56,9.586c-.611.672-.917.672-1.9.672h-2.752v1.221h3.363v21.126c0,5.5,2.629,8.365,7.949,8.365,5.809,0,8.316-3.541,8.927-6.961l-.122-.061a4.154,4.154,0,0,1-3.546,2.259c-2.018,0-3.241-1.588-3.241-4.335V112.509h7.521Zm23.335,1.221v-1.221h-7.46v-6.533c0-4.274.734-5.678,2.2-5.678.55,0,.673.061,1.039.794l4.28,8.609h.122l3.852-9.159a35.5,35.5,0,0,0-9.661-1.343c-7.4,0-11.8,3.6-11.8,13.311h-3.241v1.221h3.241v24.607a1.547,1.547,0,0,1-.55,1.465l-3,2.809v.122H345.59v-.122l-4.525-3.114c-.856-.549-.917-.733-.917-1.526v-24.24ZM367.074,97l-13.513,1.588v.122l3,2.809a1.658,1.658,0,0,1,.55,1.526v34.071a1.547,1.547,0,0,1-.55,1.465l-3,2.809v.122h17.12v-.122l-3-2.809a1.46,1.46,0,0,1-.612-1.465Zm35.319,28.026H384.05v.122c0,7.938,4.036,11.174,8.744,11.174a9.926,9.926,0,0,0,9.294-5.617h.122C400.62,138.4,395.851,142,388.7,142c-7.7,0-14.98-4.64-14.98-15.387,0-11.3,7.215-15.814,15.347-15.814,6.481,0,13.391,3.053,13.391,12.883C402.454,123.866,402.454,124.293,402.393,125.026Zm-13.452-13.067c-3.057,0-4.769,3.114-4.892,11.967h8.988c.061-.794.061-1.588.061-1.832C393.1,114.1,391.448,111.959,388.942,111.959ZM423.1,123.377l3.118-3.908a17.5,17.5,0,0,1,2.568-2.626l6.542-5.434v-.122H422.976v.122l3.118,4.824c.55.794.489.916-.183,1.771l-3.485,4.4-4.464-6.655c-.489-.672-.55-.916-.061-1.465l2.323-2.87v-.122H403.594v.122l2.262,2.687a20.269,20.269,0,0,1,1.834,2.32l8.5,12.7-3.424,4.213a14.989,14.989,0,0,1-2.568,2.626l-6.481,5.434v.122h12.29v-.122l-3.118-4.763c-.55-.855-.489-.977.183-1.832l3.791-4.7,4.708,6.961c.428.672.55.916.061,1.526l-2.323,2.809v.122H436v-.122l-2.385-2.748c-.611-.733-1.1-1.282-1.712-2.137Z" transform="translate(-196 -97)" fill="#fff"/>
</svg>
