<?xml version="1.0" encoding="utf-8"?>
<!-- Generator: Adobe Illustrator 24.0.1, SVG Export Plug-In . SVG Version: 6.00 Build 0)  -->
<svg version="1.1" id="Layer_2" xmlns="http://www.w3.org/2000/svg" xmlns:xlink="http://www.w3.org/1999/xlink" x="0px" y="0px"
	 viewBox="0 0 1000 262.92" style="enable-background:new 0 0 1000 262.92;" xml:space="preserve">
<style type="text/css">
	.st0{fill:#494F58;}
	.st1{fill:#CC4046;}
</style>
<g>
	<path class="st0" d="M77.96,3.87H30.55H17.87H0v143.66h30.55v-41.79h47.41c26.88,0,48.67-21.79,48.67-48.67v-4.53
		C126.63,25.66,104.84,3.87,77.96,3.87z M71.5,81.83H30.21V27.95H71.5c14.88,0,26.94,12.06,26.94,26.94S86.37,81.83,71.5,81.83z"/>
	<path class="st0" d="M305.11,147.53l-30.77-49.32c14.47-8.37,24.23-23.98,24.23-41.9v-4.03c0-26.74-21.68-48.42-48.42-48.42h-43.72
		h-8.73h-21.15v143.66h29.87v-42.8h39.1l27.1,42.8H305.11z M206.93,81.57V28.71h36.25c14.6,0,26.43,11.83,26.43,26.43
		c0,14.6-11.83,26.43-26.43,26.43H206.93z"/>
	<path class="st1" d="M456.82,3.87c-5.54,15.14-20.04,26-37.08,26c-17.03,0-31.54-10.86-37.08-26H347.7
		c6.35,34.04,36.16,59.83,72.05,59.83s65.7-25.79,72.05-59.83H456.82z"/>
	<path class="st1" d="M382.17,147.53c5.14-15.85,20.03-27.34,37.57-27.34c17.54,0,32.43,11.49,37.57,27.34h34.68
		c-5.81-34.7-35.9-61.18-72.25-61.18s-66.44,26.47-72.25,61.18H382.17z"/>
	<path class="st0" d="M645.76,73.1c7.29-7.34,11.8-17.45,11.8-28.61c0-22.43-18.18-40.61-40.61-40.61h-41.62h-8.89h-21.4v143.66
		h21.4h8.89h47.97c22.43,0,40.61-18.18,40.61-40.62C663.9,92.8,656.69,80.37,645.76,73.1z M575.83,28.37h35.5
		c9.96,0,18.04,8.08,18.04,18.04v0c0,9.96-8.08,18.04-18.04,18.04h-35.5V28.37z M615.6,121.52h-39.78V86.61h39.78
		c9.64,0,17.45,7.81,17.45,17.45S625.24,121.52,615.6,121.52z"/>
	<path class="st0" d="M803.91,3.87V95.5c0,14.83-12.02,26.85-26.85,26.85h-7.64c-14.83,0-26.85-12.02-26.85-26.85V3.87H711.6v91.55
		c0,29.8,24.16,53.96,53.96,53.96h17.12c29.8,0,53.96-24.16,53.96-53.96V3.87H803.91z"/>
	<path class="st0" d="M965.19,44.32c0,0,27.69,0.17,29.71,0c0.34-9.4-5.2-43.8-51.1-44.31c-53.95-0.59-61.43,27.44-60.17,50.1
		c1.01,18.38,16.05,30.12,35.75,33.99c18.38,3.61,35.08,3.02,44.81,10.24c9.73,7.22,3.52,28.91-19.3,30.21
		c-22.29,1.27-31.72-10.91-33.73-19.97h-30.21c0,0,0,44.81,54.29,45.48c51.87,0.64,63.44-24.42,64.7-44.56
		c1.26-20.14-15.02-36.75-36.63-40.03c-25.84-3.91-40.31-2.16-46.61-12.08c-6.71-10.57,0.68-25.75,19.64-26.52
		C956.97,26.02,962,34.41,965.19,44.32z"/>
	<rect x="37.52" y="203.98" class="st0" width="5.72" height="6.33"/>
	<polygon class="st0" points="6.12,229.96 23.83,229.96 23.83,224.42 6.12,224.42 6.12,209.81 29.03,209.81 29.03,204.45 0,204.45 
		0,247.46 30.21,247.46 30.21,242.1 6.12,242.1 	"/>
	<path class="st0" d="M37.98,217.14v30.49c0,3.48-1.73,7.26-5.6,7.85c-1.59,0.24-5.66,0.17-8.72-0.23v6.12
		c1.9,0.22,3.99,0.36,5.91,0.36c1.47,0,2.79-0.07,3.72-0.21c6.35-0.97,10.79-6.68,10.79-13.89v-30.49H37.98z"/>
	<g>
		<path class="st0" d="M76.99,216.2c-2.3-1.1-4.77-1.66-7.34-1.66c-3.78,0-7.04,0.77-9.7,2.3c-2.65,1.53-4.66,3.62-5.96,6.21
			c-1.3,2.59-1.96,5.49-1.96,8.62c0,3.3,0.71,6.26,2.12,8.78c1.4,2.53,3.43,4.54,6.02,5.97c2.59,1.42,5.66,2.15,9.11,2.15
			c2.56,0,5.1-0.48,7.55-1.44c2.43-0.95,4.64-2.36,6.56-4.2l0.09-0.09l-2.86-3.57l-0.11,0.11c-1.41,1.33-3.09,2.36-5.01,3.08
			c-1.93,0.72-3.92,1.09-5.92,1.09c-3.32,0-6-0.8-7.98-2.37c-1.94-1.55-3.15-3.87-3.61-6.91h25.82l0.04-0.08
			c0.29-0.65,0.51-1.47,0.68-2.44c0.16-0.95,0.24-1.94,0.24-2.92c0-2.98-0.73-5.57-2.16-7.72C81.19,218.95,79.29,217.31,76.99,216.2
			z M57.87,229.47c0.34-3.05,1.5-5.49,3.44-7.28c1.97-1.81,4.65-2.73,7.97-2.73c1.88,0,3.63,0.38,5.21,1.14
			c1.57,0.76,2.83,1.9,3.75,3.42c0.89,1.48,1.3,3.32,1.2,5.45H57.87z"/>
		<path class="st0" d="M112.73,214.55c-5.34,0-9.77,1.98-13.16,5.87l-0.29-4.72h-5.15v31.9h5.77l-0.03-21.62
			c1.65-2.13,3.49-3.7,5.47-4.68c1.98-0.98,3.92-1.48,5.75-1.48c2.91,0,5.02,0.8,6.28,2.38c1.27,1.59,1.92,3.98,1.92,7.1v18.29h5.7
			v-19.45c0-4.36-1.24-7.82-3.69-10.27C119.09,215.67,116.21,214.55,112.73,214.55z"/>
		<path class="st0" d="M160.03,219.81c-1.26-1.59-2.84-2.87-4.7-3.79c-1.98-0.98-4.31-1.47-6.91-1.47c-2.94,0-5.63,0.69-7.99,2.06
			c-2.37,1.37-4.25,3.37-5.6,5.96c-1.34,2.59-2.03,5.67-2.03,9.17c0,3.5,0.69,6.56,2.06,9.09c1.37,2.53,3.27,4.48,5.66,5.78
			c2.38,1.3,5.08,1.96,8.02,1.96c2.69,0,5.08-0.51,7.1-1.5c1.89-0.94,3.47-2.29,4.7-4.03v4.56h5.28v-43.29h-5.58V219.81z
			 M156.79,240.32c-2.03,1.97-4.6,2.98-7.64,2.98c-3.24,0-5.84-0.95-7.73-2.82c-1.89-1.87-2.85-4.81-2.85-8.73
			c0-3.92,0.97-6.91,2.88-8.88c1.91-1.97,4.5-2.97,7.69-2.97c3.2,0,5.81,0.97,7.76,2.88c1.95,1.91,2.94,4.77,2.94,8.49
			C159.85,235.3,158.82,238.35,156.79,240.32z"/>
		<path class="st0" d="M200.7,216.76c-2.67-1.47-5.82-2.21-9.36-2.21c-3.54,0-6.68,0.74-9.33,2.21c-2.65,1.47-4.71,3.51-6.12,6.09
			c-1.41,2.56-2.12,5.5-2.12,8.72c0,3.22,0.71,6.15,2.12,8.71c1.4,2.57,3.47,4.62,6.15,6.09c2.67,1.46,5.82,2.21,9.36,2.21
			c3.54,0,6.68-0.75,9.33-2.24c2.65-1.49,4.71-3.55,6.12-6.12c1.41-2.56,2.12-5.5,2.12-8.72c0-3.22-0.71-6.14-2.12-8.69
			C205.44,220.26,203.37,218.22,200.7,216.76z M199.99,240.36c-2.1,2.03-4.98,3.07-8.58,3.07c-3.6,0-6.5-1.03-8.61-3.07
			c-2.11-2.03-3.18-5.06-3.18-8.98c0-3.88,1.05-6.83,3.12-8.76c2.07-1.94,4.97-2.92,8.61-2.92c3.65,0,6.55,0.98,8.65,2.92
			c2.09,1.93,3.15,4.88,3.15,8.76C203.14,235.3,202.08,238.32,199.99,240.36z"/>
		<path class="st0" d="M260.67,215.47c-1.73-0.61-3.56-0.92-5.43-0.92c-4.28,0-8.15,1.68-11.5,4.98c-0.33-0.44-0.7-0.86-1.13-1.29
			c-1.15-1.14-2.51-2.05-4.07-2.71c-1.57-0.65-3.22-0.98-4.93-0.98c-2.32,0-4.42,0.42-6.25,1.26c-1.73,0.8-3.32,2.11-4.73,3.92
			l-0.35-4.03h-5.15v31.9h5.77l-0.02-22.42c1.08-1.76,2.46-3.12,4.1-4.04c1.63-0.92,3.35-1.38,5.11-1.38c2.3,0,4.19,0.72,5.63,2.15
			c0.86,0.87,1.47,1.91,1.79,3.1c0.32,1.21,0.48,2.66,0.48,4.29v18.29h5.7v-22.38c0-0.37-0.02-0.65-0.08-0.7
			c2.31-3.16,5.41-4.76,9.2-4.76c1.2,0,2.32,0.19,3.34,0.57c1.01,0.38,1.82,0.87,2.41,1.46c1.51,1.51,2.27,4.06,2.27,7.58v18.23
			h5.71v-19.39c0-4.36-1.24-7.82-3.69-10.27C263.8,216.91,262.4,216.08,260.67,215.47z"/>
		<path class="st0" d="M322.11,215.47c-1.73-0.61-3.56-0.92-5.43-0.92c-4.28,0-8.15,1.68-11.5,4.98c-0.34-0.44-0.71-0.86-1.13-1.29
			c-1.15-1.14-2.51-2.05-4.07-2.71c-1.56-0.65-3.22-0.98-4.93-0.98c-2.32,0-4.42,0.42-6.25,1.26c-1.73,0.8-3.32,2.12-4.73,3.92
			l-0.35-4.03h-5.14v31.9h5.77l-0.02-22.42c1.08-1.76,2.45-3.11,4.09-4.04c1.63-0.92,3.35-1.38,5.11-1.38c2.31,0,4.2,0.72,5.63,2.15
			c0.87,0.88,1.47,1.92,1.79,3.1c0.32,1.21,0.48,2.66,0.48,4.29v18.29h5.7v-22.38c0-0.39-0.02-0.66-0.09-0.7
			c2.32-3.16,5.41-4.76,9.21-4.76c1.2,0,2.32,0.19,3.33,0.57c1,0.37,1.81,0.86,2.41,1.46c1.51,1.51,2.27,4.06,2.27,7.58v18.23h5.71
			v-19.39c0-4.36-1.24-7.82-3.7-10.27C325.25,216.92,323.85,216.08,322.11,215.47z"/>
		<path class="st0" d="M362.74,216.2c-2.3-1.1-4.77-1.66-7.34-1.66c-3.78,0-7.04,0.77-9.69,2.3c-2.65,1.52-4.66,3.61-5.97,6.21
			c-1.3,2.59-1.97,5.49-1.97,8.62c0,3.3,0.71,6.25,2.12,8.78c1.41,2.53,3.44,4.54,6.03,5.97c2.59,1.42,5.66,2.15,9.11,2.15
			c2.57,0,5.1-0.48,7.54-1.44c2.43-0.95,4.64-2.36,6.56-4.2l0.09-0.09l-2.86-3.57l-0.11,0.11c-1.41,1.33-3.09,2.36-5.01,3.08
			c-1.92,0.72-3.91,1.09-5.92,1.09c-3.32,0-6.01-0.8-7.98-2.37c-1.94-1.55-3.15-3.87-3.61-6.91h25.82l0.04-0.08
			c0.29-0.66,0.52-1.48,0.68-2.44c0.16-0.96,0.25-1.95,0.25-2.92c0-2.98-0.72-5.57-2.15-7.72
			C366.94,218.95,365.05,217.31,362.74,216.2z M343.62,229.47c0.34-3.05,1.5-5.5,3.44-7.28c1.97-1.81,4.65-2.73,7.97-2.73
			c1.88,0,3.63,0.38,5.21,1.14c1.57,0.75,2.83,1.9,3.75,3.42c0.9,1.49,1.3,3.32,1.2,5.45H343.62z"/>
		<rect x="484.12" y="204.55" class="st0" width="6.06" height="43.64"/>
		<path class="st0" d="M520.07,214.86c-5.38,0-9.85,1.99-13.27,5.92l-0.3-4.76h-5.19v32.15h5.81l-0.03-21.79
			c1.65-2.14,3.5-3.73,5.51-4.72c1.99-0.99,3.94-1.49,5.8-1.49c2.92,0,5.06,0.81,6.34,2.4c1.28,1.61,1.93,4.02,1.93,7.16v18.44h5.75
			v-19.61c0-4.39-1.25-7.88-3.73-10.36C526.47,215.99,523.56,214.86,520.07,214.86z"/>
		<polygon class="st0" points="554.33,241.52 544.05,216.03 537.6,216.03 551.23,248.18 557.19,248.18 570.82,216.03 564.61,216.03 
					"/>
		<path class="st0" d="M599.13,216.53c-2.32-1.11-4.81-1.67-7.4-1.67c-3.82,0-7.1,0.78-9.77,2.32c-2.68,1.54-4.7,3.65-6.01,6.26
			c-1.31,2.6-1.98,5.53-1.98,8.69c0,3.32,0.72,6.3,2.13,8.85c1.42,2.55,3.47,4.58,6.08,6.01c2.61,1.44,5.7,2.16,9.19,2.16
			c2.58,0,5.14-0.49,7.61-1.45c2.46-0.96,4.68-2.39,6.62-4.24l0.09-0.09l-2.88-3.6l-0.11,0.11c-1.42,1.34-3.12,2.38-5.05,3.1
			c-1.93,0.73-3.94,1.1-5.97,1.1c-3.35,0-6.06-0.81-8.05-2.39c-1.96-1.56-3.18-3.9-3.64-6.97h26.03l0.04-0.08
			c0.29-0.66,0.52-1.46,0.69-2.46c0.16-0.98,0.24-1.97,0.24-2.94c0-3-0.73-5.62-2.17-7.78C603.36,219.3,601.45,217.64,599.13,216.53
			z M579.85,229.91c0.35-3.07,1.51-5.54,3.47-7.34c1.99-1.83,4.69-2.76,8.04-2.76c1.89,0,3.66,0.39,5.25,1.15
			c1.58,0.76,2.85,1.92,3.78,3.45c0.9,1.49,1.31,3.34,1.21,5.49H579.85z"/>
		<path class="st0" d="M635.47,231.02c-1.68-0.61-3.97-1.25-6.8-1.91c-1.85-0.4-3.35-0.79-4.47-1.16c-1.08-0.36-1.99-0.88-2.71-1.54
			c-0.71-0.65-1.06-1.49-1.06-2.57c0-1.09,0.59-2.04,1.75-2.8c1.18-0.78,3.08-1.17,5.66-1.17c3.8,0,7.22,1.05,10.17,3.11l0.11,0.07
			l3.25-3.9l-0.11-0.09c-1.73-1.4-3.72-2.46-5.91-3.16c-2.2-0.69-4.54-1.05-6.95-1.05c-2.83,0-5.3,0.45-7.33,1.33
			c-2.04,0.89-3.61,2.07-4.66,3.52c-1.06,1.44-1.59,3.04-1.59,4.75c0,2.54,0.95,4.55,2.82,5.97c1.84,1.42,4.23,2.55,7.11,3.38
			c0.9,0.24,1.99,0.51,3.26,0.8c1.93,0.48,3.42,0.89,4.44,1.22c0.99,0.33,1.8,0.78,2.47,1.38c0.65,0.59,0.96,1.34,0.96,2.29
			c0,1.18-0.63,2.21-1.87,3.08c-1.26,0.88-3.25,1.32-5.91,1.32c-2.32,0-4.51-0.35-6.53-1.03c-2.02-0.69-3.76-1.63-5.17-2.8
			l-0.11-0.09l-2.99,3.9l0.09,0.09c1.52,1.48,3.61,2.73,6.22,3.72c2.61,0.98,5.51,1.48,8.62,1.48c3.07,0,5.66-0.49,7.71-1.46
			c2.04-0.97,3.56-2.25,4.51-3.8c0.95-1.55,1.43-3.24,1.43-5.02c0-2.12-0.64-3.82-1.91-5.08
			C638.68,232.58,637.18,231.64,635.47,231.02z"/>
		<path class="st0" d="M668.55,242.45c-0.85,0.4-1.88,0.76-3.08,1.06c-1.2,0.3-2.33,0.46-3.38,0.46c-1.9,0-3.15-0.61-3.74-1.82
			c-0.6-1.25-0.9-3.25-0.9-5.96v-14.9h10.68v-4.89h-10.68v-9.58h-4.95l-0.37,9.58h-5.41v4.89h5.1v16.32c0,4.08,0.98,7.13,2.92,9.07
			c1.7,1.66,4.05,2.5,6.98,2.5c1.6,0,3.22-0.23,4.8-0.68c1.58-0.45,2.97-1.08,4.13-1.86l0.1-0.07l-2.08-4.16L668.55,242.45z"/>
		<path class="st0" d="M700.08,216.53c-2.32-1.11-4.81-1.67-7.4-1.67c-3.82,0-7.1,0.78-9.77,2.32c-2.67,1.54-4.7,3.65-6.01,6.26
			c-1.31,2.6-1.98,5.53-1.98,8.69c0,3.32,0.72,6.3,2.13,8.85c1.42,2.55,3.47,4.58,6.08,6.01c2.61,1.44,5.7,2.16,9.19,2.16
			c2.58,0,5.14-0.49,7.61-1.45c2.46-0.96,4.68-2.39,6.62-4.24l0.09-0.09l-2.88-3.6l-0.11,0.11c-1.42,1.34-3.12,2.38-5.05,3.1
			c-1.93,0.73-3.94,1.1-5.97,1.1c-3.35,0-6.06-0.81-8.05-2.39c-1.96-1.56-3.18-3.9-3.64-6.97h26.03l0.04-0.08
			c0.29-0.66,0.52-1.46,0.69-2.46c0.16-0.98,0.24-1.97,0.24-2.94c0-3-0.73-5.62-2.17-7.78C704.31,219.3,702.4,217.64,700.08,216.53z
			 M680.8,229.91c0.35-3.07,1.51-5.54,3.47-7.34c1.99-1.83,4.69-2.76,8.04-2.76c1.89,0,3.66,0.39,5.25,1.15
			c1.58,0.76,2.85,1.92,3.78,3.45c0.9,1.49,1.31,3.34,1.21,5.49H680.8z"/>
		<path class="st0" d="M732.66,215.41c-2.39,0-4.43,0.54-6.07,1.62c-1.52,1-2.92,2.34-4.17,3.99v-4.99h-5.5v32.15h5.81l-0.02-21.8
			c1.3-2.02,2.64-3.43,4-4.19c1.37-0.76,2.95-1.15,4.72-1.15c1.65,0,3.2,0.29,4.61,0.85l0.13,0.05l2.06-5.3l-0.12-0.06
			C736.47,215.81,734.63,215.41,732.66,215.41z"/>
		<rect x="744.56" y="216.03" class="st0" width="5.81" height="32.15"/>
		<rect x="744.5" y="204.55" class="st0" width="6.12" height="6.67"/>
		<path class="st0" d="M779.08,214.86c-5.38,0-9.85,1.99-13.27,5.92l-0.29-4.76h-5.19v32.15h5.81l-0.03-21.79
			c1.65-2.14,3.5-3.73,5.51-4.72c1.99-0.99,3.94-1.49,5.8-1.49c2.93,0,5.06,0.81,6.34,2.4c1.28,1.61,1.93,4.02,1.93,7.16v18.44h5.75
			v-19.61c0-4.39-1.25-7.88-3.73-10.36C785.49,215.99,782.58,214.86,779.08,214.86z"/>
		<path class="st0" d="M826.6,216.03v4.92c-1.36-1.85-3.04-3.32-5.01-4.38c-2.1-1.13-4.41-1.71-6.88-1.71c-2.92,0-5.6,0.7-7.96,2.07
			c-2.36,1.37-4.25,3.4-5.61,6.01c-1.35,2.61-2.04,5.72-2.04,9.25c0,3.53,0.7,6.61,2.07,9.15c1.38,2.55,3.3,4.51,5.71,5.83
			c2.41,1.31,5.13,1.98,8.08,1.98c2.38,0,4.64-0.51,6.7-1.52c1.93-0.94,3.59-2.3,4.95-4.04v2.4c-0.04,3.75-1.14,6.67-3.27,8.68
			c-2.13,2.01-5.06,3.03-8.69,3.03c-1.98,0-3.92-0.31-5.76-0.92c-1.83-0.6-3.92-1.42-6.22-2.45l-0.13-0.06l-2.08,4.55l0.12,0.06
			c2.47,1.32,4.88,2.32,7.15,2.99c2.29,0.68,4.64,1.02,6.98,1.02c3.48,0,6.57-0.66,9.18-1.95c2.62-1.3,4.66-3.22,6.08-5.71
			c1.42-2.49,2.14-5.52,2.14-9v-30.23H826.6z M823.47,240.97c-1.99,1.91-4.65,2.88-7.91,2.88c-3.26,0-5.88-0.96-7.79-2.85
			c-1.91-1.89-2.88-4.85-2.88-8.8c0-3.96,0.98-6.97,2.9-8.96c1.93-1.99,4.54-3,7.76-3c3.26,0,5.92,1.01,7.91,3c1.99,1.98,3,5,3,8.96
			C826.47,236.11,825.46,239.06,823.47,240.97z"/>
		<path class="st0" d="M434.37,226.88c0.01,0.09,0.74,9.17-5.35,13.51c-3.71,2.64-10.16,3.35-14.69,1.61
			c-1.7-0.65-3.83-1.93-4.36-4.33c-1.15-5.14,3.54-7.87,5.17-8.66h11.69v-6.11h-11.6c-2.55-1.13-4.11-3.69-3.77-6.42
			c0.55-4.34,4.88-6.04,8.76-5.81c5.96,0.38,6.49,3.66,6.54,4.31l6.1-0.22c-0.08-3.26-2.74-9.58-12.26-10.18
			c-7.98-0.56-14.33,4.19-15.2,11.14c-0.48,3.84,0.89,7.51,3.49,10.14c-3.3,2.73-6.24,7.12-4.89,13.14
			c0.88,3.94,3.77,7.03,8.14,8.71c2.39,0.92,5.07,1.36,7.77,1.36c4.6,0,9.26-1.28,12.64-3.69c6.19-4.41,7.62-11.53,7.89-15.71h8.37
			v-6.11l-14.75,0.01L434.37,226.88z"/>
	</g>
</g>
</svg>
