<svg id="Component_1_1" data-name="Component 1 – 1" xmlns="http://www.w3.org/2000/svg" width="209.016" height="30" viewBox="0 0 209.016 30">
  <g id="Group_119" data-name="Group 119" transform="translate(-50 -49.5)">
    <path id="Path_94" data-name="Path 94" d="M80.04,9.716c.211.089.193.178.031.331a6.654,6.654,0,0,0-1.48,2.424H72.315V28.1H67.566V12.47h-6.21V9.716Z" transform="translate(26.991 45.856)" fill="#fff"/>
    <path id="Path_95" data-name="Path 95" d="M103.59,12.105c.025.435.025.493-.209.667l-.626.406a1.318,1.318,0,0,1-.261.087,3.754,3.754,0,0,1-.862-.493,7.471,7.471,0,0,0-3.672-.9c-.34,0-2.452,0-2.452,1.855,0,1.131.939,1.537,3.653,2.725,2.244.986,5.087,2.261,5.087,5.856a5.5,5.5,0,0,1-3.866,5.305,11.6,11.6,0,0,1-4.122.638,29.984,29.984,0,0,1-5.124-.792L91.1,24.653c0-.483.066-.421.236-.518l.593-.317a.816.816,0,0,1,.313-.116c.027,0,.835.58.992.667a8.284,8.284,0,0,0,4.018,1.189c1.644,0,2.636-.725,2.636-2.087s-.626-1.768-4.832-3.595c-3.653-1.594-3.809-3.866-3.809-5.1A4.858,4.858,0,0,1,93.1,10.685c1.33-.986,2.843-1.479,5.5-1.479a24.924,24.924,0,0,1,4.969.589Z" transform="translate(15.838 46.048)" fill="#fff"/>
    <path id="Path_96" data-name="Path 96" d="M130.817,12.6c-.052.319-.052.348-.313.493l-.495.29c-.183.087-.209.116-.261.116,0,0-.58-.348-.6-.377a7.9,7.9,0,0,0-4.174-1.189c-2.374,0-4.568,1.1-4.568,6.088,0,2.957.757,7.509,5.4,7.509a6.185,6.185,0,0,0,3.733-1.247c.077-.029.386-.348.469-.348a.64.64,0,0,1,.209.087l.417.29a1,1,0,0,1,.051.464v2.385a17.642,17.642,0,0,1-5.582,1.065c-3.183,0-4.959-.725-6.237-1.624a9.028,9.028,0,0,1-3.549-7.538c0-4.958,3.211-9.857,10.437-9.857a15.89,15.89,0,0,1,5.052.891Z" transform="translate(6.756 46.048)" fill="#fff"/>
    <path id="Path_97" data-name="Path 97" d="M148.443,9.716v7.132h6.811V9.716H160V28.1h-4.749V20.008h-6.811V28.1h-4.774V9.716Z" transform="translate(-3.876 45.856)" fill="#fff"/>
    <path id="Path_98" data-name="Path 98" d="M188.689,9.716V12.47h-8.172v4.639H187.8v2.706h-7.287v5.363h8.5v2.928H175.749V9.716Z" transform="translate(-15.906 45.856)" fill="#fff"/>
    <path id="Path_99" data-name="Path 99" d="M206.5,28.138h-4.571V9.758c1.3,0,2.584-.029,3.865-.058,2.533-.058,2.818-.058,3.34-.058,2.271,0,4.149.087,5.584,1.421a5.107,5.107,0,0,1,1.546,3.74,4.867,4.867,0,0,1-3.866,4.9c.86,1.768,3.179,6.291,5.8,6.765h.091v1.27a.581.581,0,0,1-.452.5,7.334,7.334,0,0,1-2.271.348c-3.079,0-5.139-1.623-7.853-8.175h-1.2Zm0-10.147c.626.029,1.2.058,1.723.058,1.851,0,3.026-.58,3.026-3.189,0-2.232-1.253-2.706-3.026-2.706l-1.723-.029Z" transform="translate(-25.725 45.884)" fill="#fff"/>
    <path id="Path_100" data-name="Path 100" d="M235.048,9.828l9.084,11.278-.193-11.278h3.444l-.182,18.38h-3.253l-9.711-11.886.288,11.886h-3.444l.129-18.38Z" transform="translate(-36.656 45.814)" fill="#fff"/>
    <path id="Path_101" data-name="Path 101" d="M268.056,9.828v18.38H263.28V9.828Z" transform="translate(-48.73 45.814)" fill="#fff"/>
    <path id="Path_102" data-name="Path 102" d="M324.015,18.819v8.386a29.035,29.035,0,0,1-7.385.966c-3.547,0-6.288-.7-8.245-3.189a9.3,9.3,0,0,1-1.722-5.74c0-7.151,5.506-10.089,10.7-10.089a24,24,0,0,1,5.887.966v2.536c0,.348,0,.348-.261.493l-.7.377c-.131.087-.156.087-.193.087a3.822,3.822,0,0,1-.626-.406,7.73,7.73,0,0,0-4.513-1.392c-4.2,0-5.193,3.363-5.193,6.784,0,3.8,1.279,6.987,5.74,6.987a9.046,9.046,0,0,0,1.724-.193V18.819Z" transform="translate(-64.999 46.067)" fill="#fff"/>
    <path id="Path_103" data-name="Path 103" d="M281.193,9.859l9.084,11.278-.193-11.278h3.444l-.181,18.38H290.1l-9.71-11.886.288,11.886h-3.444l.129-18.38Z" transform="translate(-53.961 45.803)" fill="#fff"/>
  </g>
  <g id="Group_118" data-name="Group 118" transform="translate(-50 -49.5)">
    <path id="Path_104" data-name="Path 104" d="M29.916,15.191A14.725,14.725,0,1,1,28.8,9.556,14.727,14.727,0,0,1,29.916,15.191Z" transform="translate(49.827 49.326)" fill="#fff"/>
    <path id="Path_105" data-name="Path 105" d="M16.006,15.678c.012.029.031.066.052.106a.754.754,0,0,1,.093.213c.035.085.073.176.1.238.016.041.037.089.056.131a1.957,1.957,0,0,1,.124-.245c.118-.215.265-.479.193-.647a.24.24,0,0,0-.168-.064.814.814,0,0,0-.41.178L16,15.616h-.019l.015.035Z" transform="translate(44.006 43.722)" fill="#51a025"/>
    <path id="Path_106" data-name="Path 106" d="M22.947,22.171l.284-.066a2.48,2.48,0,0,1-1.189-1.22v-.015a.173.173,0,0,0,0-.021.539.539,0,0,1,.315-.686l.023-.012a1.652,1.652,0,0,1,.748-.193,3.774,3.774,0,0,1,1.16.323,1.351,1.351,0,0,0-.149-.228,1.134,1.134,0,0,1-.13-.193l-.11-.193c-.649-1.1-.852-1.461-.914-1.587h-.046a.882.882,0,0,1-.416-.093.18.18,0,0,1-.06-.193.34.34,0,0,1,.3-.158L22.68,17.5a2.333,2.333,0,0,1-.29-.814.746.746,0,0,1,.155-.508.423.423,0,0,1,.348-.131h.095A.286.286,0,0,0,23.18,16a.114.114,0,0,0,.041-.129c-.014-.044-.193-.387-.371-.762-.354-.707-.792-1.585-.858-1.807a6.781,6.781,0,0,1-.232-.7c-.025-.081-.044-.151-.054-.174s-.012-.037-.019-.058a.7.7,0,0,0-.106-.232c-.058.027-.087.1-.114.193v.025a1.448,1.448,0,0,1-.062.158c-.062.159-.112.288-.143.352a2.241,2.241,0,0,0,.232.385c.1.129.945,1.26,1.015,1.382a.226.226,0,0,1,.033.24.267.267,0,0,1-.218.126h-.014a.833.833,0,0,1-.28-.083,1.645,1.645,0,0,0-.541-.141c-.4.041-.557.135-.615.209a.182.182,0,0,0-.035.149.1.1,0,0,1,0,.021,2.285,2.285,0,0,0,.3.874,5.686,5.686,0,0,1,.321.485,18.911,18.911,0,0,0,1.519,2.151.35.35,0,0,1,.126.315.286.286,0,0,1-.174.18H22.92a1.027,1.027,0,0,1-.158.012,3.912,3.912,0,0,1-1.026-.209c-.089-.027-.193-.056-.218-.062H21.5a1.293,1.293,0,0,0-.166,0c-.373,0-.462.164-.5.243l-.021.037a1.37,1.37,0,0,0,.209.794,6.714,6.714,0,0,0,.9,1.2c.3.3,1.032,1.026,1.026.993" transform="translate(42.202 44.95)" fill="#51a025"/>
    <path id="Path_107" data-name="Path 107" d="M15.746,19.222c-.416-.371-1.966-1.825-2.026-3.092a.792.792,0,0,1,.338-.653,2.113,2.113,0,0,1,1.1-.228h.228a18.225,18.225,0,0,1-1.353-2.478.752.752,0,0,0-.048-.178,1.88,1.88,0,0,1-.1-.881c.043-.416.562-.543,1.1-.6-.126-.207-.454-.715-.549-.823-.155.313-.278.354-.386.369h-.056a.127.127,0,0,1-.077-.025h-.014v-.014c-.1-.16.029-.329.143-.477s.209-.29.126-.387a17.321,17.321,0,0,1-1.013-1.944,2.228,2.228,0,0,1-.122-.327c-.031-.093-.073-.215-.106-.3-.035.1-.085.253-.124.377-.064.2-.129.414-.176.518a12.6,12.6,0,0,1-.58,1.307,4.742,4.742,0,0,1-.435.738c-.085.128-.18.284-.18.284l-.056.089c-.041.064-.075.118-.126.184a.152.152,0,0,0-.029.135.1.1,0,0,0,.037,0c.014-.012.041-.042.066-.07a1.353,1.353,0,0,1,.653-.454.871.871,0,0,1,.12,0,.541.541,0,0,1,.5.325c.16.356-.158,1.08-.288,1.289a1.249,1.249,0,0,0-.294.663c.025.048.087.184.18.387s.2.444.228.489c.172.218.166.332.141.417a.516.516,0,0,1-.257.157.387.387,0,0,1-.321-.122l-.029-.052-.012-.019a5.117,5.117,0,0,1-.28-.564,7.3,7.3,0,0,1-.651.99c-.058.079-.135.193-.149.211s-.1.143-.083.193c0,0,0,.027.048.046a1.787,1.787,0,0,0,.253.015c.062,0,.356-.025.446-.025.632,0,.79.257.829.41a.773.773,0,0,1,0,.356c-.025.1-.236.688-.331.945a9.715,9.715,0,0,1-.58.895,6.316,6.316,0,0,1-.906,1.013,3.478,3.478,0,0,0-.269.245.328.328,0,0,0-.068.184v.41a2.748,2.748,0,0,1,0,.514,2.4,2.4,0,0,0,.044.417.278.278,0,0,1,0,.247.143.143,0,0,1-.124.06H9.971a.466.466,0,0,1-.4-.143.358.358,0,0,1-.017-.323,2.9,2.9,0,0,0,0-.58,1.48,1.48,0,0,0-.386.261.967.967,0,0,1-.686.4H8.411a.433.433,0,0,1-.423-.222.265.265,0,0,1,.176-.327c.056-.029.218-.085.238-.093a1.112,1.112,0,0,0,.182-.147s.35-.329.518-.464c0,0,.226-.215.327-.321l.116-.122a.482.482,0,0,0,.056-.126l.014-.51s.013-.746.013-.752V16.9a.3.3,0,0,1,.166-.193.458.458,0,0,1,.137-.025.261.261,0,0,1,.184.07.685.685,0,0,1,.075.118l.012.083v.69c.037-.041.075-.077.11-.114l.06-.062a4.975,4.975,0,0,0,1.363-2.319c0-.012-.031-.054-.157-.054,0,0-.093-.01-.22-.01a2.269,2.269,0,0,0-.514.056,2.9,2.9,0,0,0-.895.387,1.66,1.66,0,0,0-.288.269l-.01.015a1.311,1.311,0,0,1-.16.184.387.387,0,0,0-.056.029.33.33,0,0,1-.168.058.245.245,0,0,1-.089-.019.431.431,0,0,1-.17-.193.4.4,0,0,1,.1-.5l.139-.122a3.954,3.954,0,0,0,.323-.255,1.678,1.678,0,0,1,.271-.294c.077-.089.495-.619.559-.707.044-.048.533-.729.85-1.173a.578.578,0,0,0,.077-.129,7.634,7.634,0,0,0-.387-.945c-.015-.037-.093-.249-.11-.284a1.369,1.369,0,0,0-.23.218c-.145.157-.242.255-.332.267a.515.515,0,0,1-.073,0,.428.428,0,0,1-.18-.07.236.236,0,0,1-.046-.329,1.89,1.89,0,0,1,.137-.158,3.328,3.328,0,0,0,.334-.412.723.723,0,0,0,.122-.236,4.508,4.508,0,0,0-.141-.491c-.014-.06-.255-.864-.387-1.237a22.342,22.342,0,0,1-1.14,2.58c-.029.035-.193.334-.313.58-.147.278-.284.541-.332.611a5.955,5.955,0,0,0-.3.531c.089-.046.2-.112.286-.158A2.862,2.862,0,0,1,8.5,13.01a.816.816,0,0,1,.336-.077.423.423,0,0,1,.35.153.966.966,0,0,1,.114.58,5.238,5.238,0,0,1-.215.6l-.568,1.049h-.01c-.039.052-.155.261-.24.418a5.394,5.394,0,0,1-.286.493c-.153.207-.646.945-.675.988s-.193.3-.232.348a2.639,2.639,0,0,0,.3-.064,2.306,2.306,0,0,1,.533-.158.682.682,0,0,1,.56.255.74.74,0,0,1,.128.483A10.892,10.892,0,0,1,7.35,20.524c-.014.017-.193.294-.358.557-.242.387-.516.827-.634.98a.663.663,0,0,1-.5.33.45.45,0,0,1-.114-.015.309.309,0,0,1-.3-.238.528.528,0,0,1,.089-.327c.046-.054.91-1.194,1.353-1.79A16.124,16.124,0,0,0,7.9,18.24a.251.251,0,0,0-.085-.342.28.28,0,0,0-.091-.014.922.922,0,0,0-.29.071,6.96,6.96,0,0,0-.669.387H6.739c-.041.017-.259.193-.417.321-.193.156-.321.257-.375.29s-.369.336-.593.354a.252.252,0,0,1-.079.012.263.263,0,0,1-.209-.089.242.242,0,0,1-.037-.216c.014-.06.112-.155.472-.472A4.916,4.916,0,0,0,5.86,18.2c.095-.151.649-.966.98-1.459l.236-.348c.129-.209.845-1.237.876-1.281a10.11,10.11,0,0,0,.543-.92c.039-.081.143-.373.168-.452a.311.311,0,0,0-.019-.193c-.027-.05-.044-.073-.073-.083a1.651,1.651,0,0,0-.531.2c-.414.3-1.239.912-1.307.99v.014H6.72l-.043.05a.85.85,0,0,1-.236.22h-.01a.453.453,0,0,1-.137.023.3.3,0,0,1-.257-.139.369.369,0,0,1,.149-.47c.054-.039.114-.073.17-.106a.8.8,0,0,0,.164-.11l.012-.012c.046-.031.3-.267.363-.334s.309-.408.4-.535a11.27,11.27,0,0,0,1.131-2,3.8,3.8,0,0,1,.207-.431,5.813,5.813,0,0,0,.269-.551v-.01c.058-.112.562-1.353.6-1.488.019-.048.207-.756.218-.823s.122-.723.16-.874a.193.193,0,0,1,.193-.193c.091,0,.193.064.224.238a2.747,2.747,0,0,1,.041.387,2.764,2.764,0,0,0,.021.29c.01.079.359,1.432.408,1.6.031.131.155.52.215.667.023-.033.05-.081.068-.108a.471.471,0,0,1,.05-.085c.021-.05.106-.218.271-.543.331-.628.856-1.664.922-1.877a4.668,4.668,0,0,0,.294-1.125,1.391,1.391,0,0,1,.089-.387c.041-.1.1-.147.168-.147a.215.215,0,0,1,.149.083,4.319,4.319,0,0,1,.321.736c.242.6.609,1.519,1.007,2.352.035.056.066.11.095.162s.054.1.081.137c.066-.137.135-.311.193-.446l.041-.1a2.656,2.656,0,0,0,.157-.649V8.052a.471.471,0,0,0,0-.11c0-.1,0-.247.141-.3a.093.093,0,0,1,.033,0,.193.193,0,0,1,.193.126,4.557,4.557,0,0,1,.193.454c.015.048.035.095.052.143v.012c.023.124.53,1.589.6,1.718v.015c.073.118,1.03,1.973,1.146,2.167.043.064.118.193.193.321a4.221,4.221,0,0,0,.265.416.329.329,0,0,1,.114.367.305.305,0,0,1-.265.153.427.427,0,0,1-.193-.048,4.5,4.5,0,0,0-.617-.211.224.224,0,0,0-.209.106.452.452,0,0,0,0,.358v.025a2.364,2.364,0,0,0,.284.508h.029a1.678,1.678,0,0,0,.543-.211c.044-.021.079-.041.1-.05.193-.112,2.184-1.662,2.225-2.066v-.027a.309.309,0,0,1,.305-.135c.1,0,.141,0,.164-.054l.039-.033a.261.261,0,0,1,.081-.016.232.232,0,0,1,.178.1.387.387,0,0,0,.058.056l.066.07a13.21,13.21,0,0,0,1.409,1.353c.043.027.193.178.232.178a.1.1,0,0,0,.045-.01,6.441,6.441,0,0,0,1.407-.808l.079-.1c.1-.131.3-.375.526-.375a.339.339,0,0,1,.077.01s.178.071.2.145c.071.068.433.34.518.431a12.668,12.668,0,0,0,2.406,1.077l.278.083.12.033a.621.621,0,0,1,.375.321.472.472,0,0,1-.083.425.213.213,0,0,1-.193.075.506.506,0,0,1-.234-.06c-.074-.029-1.061-.419-1.214-.472a8.6,8.6,0,0,1-1.946-1.057.671.671,0,0,1-.164-.178c-.046-.066-.077-.106-.112-.106a.093.093,0,0,0-.041.012.3.3,0,0,0-.046.05.543.543,0,0,1-.079.085,11.464,11.464,0,0,1-1.355.8c.446.269,2.126,1.183,2.23,1.223h0a3.908,3.908,0,0,0,1.229.358h.068a.34.34,0,0,1,.259.128.29.29,0,0,1,.046.22.446.446,0,0,1-.445.4,1.773,1.773,0,0,1-.439-.108l-.064-.021A10.854,10.854,0,0,1,23,14.77,8.467,8.467,0,0,1,21.9,14a.531.531,0,0,0-.1.033,1.046,1.046,0,0,1-.375.091.567.567,0,0,1-.143-.019.155.155,0,0,1-.071-.193.174.174,0,0,1,.193-.153h.168a14.04,14.04,0,0,1-1.111-1.129.592.592,0,0,0-.249-.228,2.081,2.081,0,0,0-.22.253,9.5,9.5,0,0,1-2.9,2.014l-.066.031c.178.276.988,1.465,1.546,2.275.066.068.462.491.331.773a.259.259,0,0,1-.234.178.276.276,0,0,1-.124-.033,7.2,7.2,0,0,0-1.527-.584c-.1,0-.193-.014-.265-.014a1,1,0,0,0-.466.091c-.1.077-.075.151-.019.257a.325.325,0,0,1,.029.068,2.174,2.174,0,0,0,.667.589l.135.073c.216.118.56.307.663.354a37.244,37.244,0,0,1,11.39-.819,14.685,14.685,0,0,0,.093-1.606,12.924,12.924,0,1,0-23.7,7.128A38.387,38.387,0,0,1,15.746,19.222Zm-3.307-.678a3.046,3.046,0,0,1,.021-.365c.019-.3.05-.808.037-.86v-.012c.014-.081.014-.58.012-.845a.242.242,0,0,1,.24-.193.284.284,0,0,1,.259.157v.11a6.536,6.536,0,0,1,0,.7c0,.126.012.344.023.537,0,.147.015.272.015.331,0,.224.027.993.027,1a.193.193,0,0,1-.043.159.386.386,0,0,1-.294.112.5.5,0,0,1-.286-.087v-.012a2.715,2.715,0,0,1-.013-.731" transform="translate(48.727 48.235)" fill="#51a025"/>
    <path id="Path_108" data-name="Path 108" d="M8.284,33.586a12.924,12.924,0,0,0,22.628-6.032,21.24,21.24,0,0,0-3.069-.246,34.951,34.951,0,0,0-7.5.854.731.731,0,0,1,.352.193.12.12,0,0,1,0,.073.145.145,0,0,1-.027.106.327.327,0,0,1-.274.1.984.984,0,0,1-.253-.039l-.029-.017c-.11-.025-.427-.122-.663-.193l-.387.1c.247.172.711.555.761.6a.356.356,0,0,0,.081.045.267.267,0,0,1,.193.23.34.34,0,0,1,0,.193.387.387,0,0,1-.387.242h-.045a1.278,1.278,0,0,1-.386-.166,2.905,2.905,0,0,1-.441-.365,3.459,3.459,0,0,0-.657-.524,28.908,28.908,0,0,0-9.905,4.853Zm16.229-2.623c-.043.11-.274.126-.408.126-.193,0-.234-.035-.247-.048a.193.193,0,0,1-.035-.139.17.17,0,0,1,.093-.112.474.474,0,0,1,.274-.079h.048a.414.414,0,0,1,.261.131.146.146,0,0,1,.023.112Zm.178-.918-.041.05-.013.015a.76.76,0,0,1-.634.3h-.025a1.323,1.323,0,0,1-.387-.072.835.835,0,0,1-.437-.356c0-.012-.014-.027-.021-.044-.077-.149-.253-.5.325-.825l.029-.017a1.118,1.118,0,0,1,.458-.182h.033a.386.386,0,0,1,.294.087.135.135,0,0,1,.033.116c0,.075-.1.11-.193.11a.329.329,0,0,1-.064,0h-.015a.176.176,0,0,0-.145.073,1.129,1.129,0,0,1-.218.18l-.056.039c-.085.058-.075.112-.05.193a.283.283,0,0,1,0,.031.555.555,0,0,0,.464.242h.037a.667.667,0,0,0,.474-.215l.021-.013h.031a.18.18,0,0,1,.046,0,.106.106,0,0,1,.085.048c.072.083,0,.193-.037.263Z" transform="translate(46.896 39.259)" fill="#004413"/>
    <path id="Path_109" data-name="Path 109" d="M32.21,14.084a3.98,3.98,0,0,0,.479.037.955.955,0,0,0,.8-.4l.039-.06a.793.793,0,0,0-.019-1.129,1.934,1.934,0,0,0-.4-.344.224.224,0,0,0-.081-.015.158.158,0,0,0-.141.073.311.311,0,0,0,.118.3.58.58,0,0,1,.037.713v.01a.547.547,0,0,1-.454.193.456.456,0,0,1-.445-.309.485.485,0,0,1,0-.282,1.081,1.081,0,0,1,.58-.684.151.151,0,0,0,.126-.1v-.029a.137.137,0,0,0-.025-.108c-.037-.043-.1-.058-.242-.058a1.441,1.441,0,0,0-1.077.632,1.032,1.032,0,0,0-.143.922,1.18,1.18,0,0,0,.877.616" transform="translate(38.26 45.039)" fill="#fff"/>
    <path id="Path_110" data-name="Path 110" d="M16.008,15.622a.166.166,0,0,0,.044-.029.814.814,0,0,1,.41-.178.244.244,0,0,1,.168.064c.07.168-.077.433-.193.647a1.951,1.951,0,0,0-.128.257,1.3,1.3,0,0,1-.054-.133c-.027-.062-.066-.153-.1-.238a.815.815,0,0,0-.093-.213,1.057,1.057,0,0,1-.052-.108v-.014A.336.336,0,0,0,16,15.644h.019" transform="translate(44.001 43.719)" fill="#51a025"/>
    <path id="Path_111" data-name="Path 111" d="M15,30a15.017,15.017,0,1,1,10.6-4.4A15,15,0,0,1,15,30ZM15,.58A14.436,14.436,0,1,0,25.192,4.808,14.42,14.42,0,0,0,15,.58Z" transform="translate(50 49.5)" fill="#004413"/>
  </g>
</svg>
