<?xml version="1.0" encoding="UTF-8"?> <svg xmlns="http://www.w3.org/2000/svg" viewBox="0 0 173.46 31.223"><defs><style>.cls-1{fill:#1c222a;}</style></defs><title>logo_zenegy_black</title><g id="Layer_2" data-name="Layer 2"><g id="Layer_1-2" data-name="Layer 1"><path class="cls-1" d="M4.739,31.223A4.669,4.669,0,0,1,.27,28.115a4.511,4.511,0,0,1,1.536-5.148L22.76,6.774a2.64,2.64,0,0,0,.909-3.046,2.732,2.732,0,0,0-2.645-1.84H4.739a2.732,2.732,0,0,0-2.645,1.84A2.64,2.64,0,0,0,3,6.774L5.631,8.805a.932.932,0,0,1,.159,1.326.98.98,0,0,1-1.357.155L1.806,8.256A4.511,4.511,0,0,1,.27,3.108,4.669,4.669,0,0,1,4.739,0H21.024a4.669,4.669,0,0,1,4.469,3.108,4.512,4.512,0,0,1-1.535,5.148L3,24.449A2.64,2.64,0,0,0,2.094,27.5a2.733,2.733,0,0,0,2.645,1.84H21.024a2.733,2.733,0,0,0,2.645-1.84,2.64,2.64,0,0,0-.909-3.046l-2.712-2.1a.932.932,0,0,1-.159-1.326.98.98,0,0,1,1.357-.155l2.712,2.095a4.512,4.512,0,0,1,1.535,5.148,4.669,4.669,0,0,1-4.469,3.108Z" transform="translate(0)"></path><path class="cls-1" d="M2.929,17.82a.97.97,0,0,1-.759-.359.931.931,0,0,1,.159-1.326L13.655,7.382H9.313a.944.944,0,1,1,0-1.888H15.68a1.228,1.228,0,0,1,1.16.807,1.184,1.184,0,0,1-.4,1.335L3.527,17.616A.974.974,0,0,1,2.929,17.82Z" transform="translate(0)"></path><path class="cls-1" d="M9.989,25.624a1.226,1.226,0,0,1-1.159-.806,1.184,1.184,0,0,1,.4-1.336L22.143,13.5a.981.981,0,0,1,1.356.156.932.932,0,0,1-.158,1.326L12.014,23.736h3.975a.944.944,0,1,1,0,1.888Z" transform="translate(0)"></path><path class="cls-1" d="M39.723,23.878v-.052a1.338,1.338,0,0,1,.373-.914L51.818,8.344H40.977a.927.927,0,1,1,0-1.853H53.714a.956.956,0,0,1,.961.887V7.43a1.332,1.332,0,0,1-.374.914L42.58,22.912H53.847a.928.928,0,1,1,0,1.854H40.71A.963.963,0,0,1,39.723,23.878Z" transform="translate(0)"></path><path class="cls-1" d="M63.615,23.722V7.535a1.053,1.053,0,0,1,1.042-1.044H76.271a.94.94,0,1,1,0,1.879H65.725v6.24H75.07a.964.964,0,0,1,.961.94.946.946,0,0,1-.961.939H65.725v6.4h10.68a.94.94,0,1,1,0,1.88H64.657A1.054,1.054,0,0,1,63.615,23.722Z" transform="translate(0)"></path><path class="cls-1" d="M86.04,7.43a1.049,1.049,0,0,1,1.041-1.018h.294a1.3,1.3,0,0,1,1.068.6l11.348,14.15V7.378a1.028,1.028,0,0,1,2.056,0v16.5a.936.936,0,0,1-.961.966h-.107a1.45,1.45,0,0,1-1.094-.627L88.1,9.728v14.15a1.028,1.028,0,0,1-2.056,0Z" transform="translate(0)"></path><path class="cls-1" d="M111.668,23.722V7.535a1.053,1.053,0,0,1,1.041-1.044h11.615a.94.94,0,1,1,0,1.879H113.777v6.24h9.346a.964.964,0,0,1,.961.94.946.946,0,0,1-.961.939h-9.346v6.4h10.681a.94.94,0,1,1,0,1.88H112.709A1.053,1.053,0,0,1,111.668,23.722Z" transform="translate(0)"></path><path class="cls-1" d="M133.11,15.68v-.052a9.268,9.268,0,0,1,9.372-9.451,10.108,10.108,0,0,1,6.381,1.958,1.039,1.039,0,0,1-.614,1.88,1.124,1.124,0,0,1-.667-.261,8.042,8.042,0,0,0-5.18-1.671,7.208,7.208,0,0,0-7.1,7.493v.052c0,4.36,2.857,7.6,7.4,7.6a8.928,8.928,0,0,0,5.394-1.827V16.855h-5.02a.927.927,0,1,1,0-1.853h6.008a1.053,1.053,0,0,1,1.041,1.044v5.561a1.466,1.466,0,0,1-.72,1.253,11.567,11.567,0,0,1-6.783,2.219A9.06,9.06,0,0,1,133.11,15.68Z" transform="translate(0)"></path><path class="cls-1" d="M164.115,17.586l-6.942-9.5a1.323,1.323,0,0,1-.24-.7,1.079,1.079,0,0,1,1.094-1.018,1.235,1.235,0,0,1,1.015.627l6.168,8.693,6.221-8.693a1.191,1.191,0,0,1,.988-.627,1.031,1.031,0,0,1,1.041,1.018,1.555,1.555,0,0,1-.293.757l-6.916,9.4v6.318a1.068,1.068,0,0,1-2.136,0Z" transform="translate(0)"></path></g></g></svg> 