<svg width="28" height="28" viewBox="0 0 28 28" fill="none" xmlns="http://www.w3.org/2000/svg">
<g clip-path="url(#clip0_1145_4005)">
<path d="M23.9538 11.7497C23.9874 7.80206 20.6252 4.1831 16.4588 3.68267C16.376 3.67284 16.2857 3.65788 16.1901 3.64206C15.9839 3.60788 15.7706 3.57275 15.5553 3.57275C14.7014 3.57275 14.4732 4.17258 14.4131 4.53032C14.3547 4.87814 14.4104 5.17023 14.5785 5.39884C14.8613 5.78336 15.3588 5.85162 15.7585 5.90632C15.8756 5.92249 15.9861 5.93754 16.0787 5.95832C19.822 6.79475 21.0824 8.1098 21.6984 11.8213C21.7134 11.912 21.7202 12.0237 21.7274 12.1422C21.7543 12.5859 21.8103 13.5089 22.8027 13.5089H22.8027C22.8853 13.5089 22.9741 13.5018 23.0666 13.4877C23.9907 13.3473 23.9617 12.5035 23.9478 12.0981C23.9439 11.984 23.9401 11.876 23.9498 11.8041C23.9524 11.7861 23.9537 11.7679 23.9538 11.7497Z" fill="#ED1F24"/>
<path d="M15.3129 2.23374C15.4238 2.24174 15.5287 2.24939 15.6161 2.26278C21.763 3.20809 24.5899 6.12044 25.3733 12.3154C25.3866 12.4207 25.3887 12.5491 25.3908 12.6851C25.3987 13.1691 25.4147 14.176 26.4961 14.1969L26.5296 14.1972C26.8687 14.1972 27.1385 14.095 27.3314 13.893C27.6681 13.541 27.6446 13.0179 27.6256 12.5976C27.621 12.4944 27.6166 12.3973 27.6177 12.3123C27.6959 5.97644 22.2115 0.23113 15.8814 0.0174783C15.8551 0.0166087 15.8301 0.018 15.8047 0.0215652C15.7923 0.0233913 15.7693 0.0256522 15.7298 0.0256522C15.6667 0.0256522 15.589 0.0201739 15.5067 0.0146087C15.4071 0.00782609 15.2942 0 15.1798 0C14.1717 0 13.98 0.716522 13.9555 1.14365C13.899 2.13078 14.854 2.20026 15.3129 2.23374Z" fill="#ED1F24"/>
<path d="M25.0751 20.322C24.9444 20.2222 24.8093 20.1189 24.6828 20.017C24.0116 19.4769 23.2976 18.9791 22.6071 18.4976C22.4638 18.3978 22.3205 18.2979 22.1777 18.1977C21.2932 17.5764 20.498 17.2745 19.7467 17.2745C18.7348 17.2745 17.8525 17.8336 17.1243 18.9361C16.8017 19.4249 16.4103 19.6626 15.928 19.6626C15.6428 19.6626 15.3187 19.5812 14.9649 19.4206C12.1098 18.1259 10.0711 16.1408 8.90529 13.5206C8.34172 12.2541 8.52442 11.4263 9.51624 10.7526C10.0795 10.3703 11.1278 9.65865 11.0535 8.29587C10.9695 6.74831 7.55485 2.09187 6.11616 1.563C5.50703 1.339 4.86703 1.33691 4.2105 1.55778C2.55659 2.11378 1.36972 3.09022 0.777895 4.38135C0.205982 5.62891 0.231808 7.09378 0.85259 8.61761C2.6472 13.0233 5.17033 16.8646 8.35216 20.0344C11.4666 23.1373 15.2945 25.6791 19.7295 27.5887C20.1292 27.7607 20.5485 27.8546 20.8547 27.923C20.959 27.9465 21.0491 27.9665 21.1148 27.9845C21.1509 27.9943 21.1881 27.9996 21.2254 28L21.2604 28.0001C21.2604 28.0001 21.2604 28.0001 21.2606 28.0001C23.3465 28.0001 25.8511 26.094 26.6203 23.921C27.2942 22.0182 26.0638 21.0777 25.0751 20.322Z" fill="#ED1F24"/>
<path d="M16.2358 7.26639C15.8787 7.27543 15.1355 7.29386 14.8747 8.05082C14.7527 8.40456 14.7673 8.71169 14.9182 8.96369C15.1396 9.33343 15.5638 9.44673 15.9496 9.50891C17.3488 9.73343 18.0674 10.5072 18.2112 11.9437C18.2779 12.6135 18.729 13.0813 19.3081 13.0813C19.3509 13.0813 19.3947 13.0787 19.4383 13.0734C20.1348 12.9906 20.4725 12.4788 20.4419 11.5526C20.4531 10.5859 19.9472 9.48839 19.0867 8.61421C18.2233 7.73734 17.1825 7.24352 16.2358 7.26639Z" fill="#ED1F24"/>
</g>
<defs>
<clipPath id="clip0_1145_4005">
<rect width="28" height="28" fill="white"/>
</clipPath>
</defs>
</svg>
